<?xml version="1.0" encoding="UTF-8"?><svg id="Layer_1" xmlns="http://www.w3.org/2000/svg" viewBox="0 0 393.46 163.27"><defs><style>.cls-1{fill:#fff;}</style></defs><path class="cls-1" d="m0,163.27V0h393.46v163.27H0ZM196.25,9.69c-25.5,0-51,0-76.5,0-25.37,0-50.75-.02-76.12,0-2.65,0-5.31.06-7.94.37-13.07,1.52-23.91,11.28-26.88,24.11-.97,4.17-.85,8.41-.84,12.65,0,25.11-.05,50.23,0,75.34,0,2.88.25,5.81.86,8.62,1.17,5.41,3.96,10.1,7.76,14.07,6.4,6.68,14.3,10.33,23.62,10.34,103.94.04,207.88.03,311.82.02,1.26,0,2.52-.14,3.77-.28,5.45-.64,10.56-2.37,14.97-5.62,8.91-6.55,13.61-15.37,13.61-26.49.02-24.4.03-48.8-.01-73.2,0-4.4.03-8.84-.5-13.19-.88-7.1-4.07-13.27-9.37-18.08-5.98-5.42-13.14-8.41-21.32-8.6-3.58-.09-7.16-.04-10.75-.04-48.72,0-97.45,0-146.17,0Z"/><path class="cls-1" d="m153.89,64.4c2.85,2.14,4.6,4.89,5.43,8.21,2.28,9.1-4.28,16.77-11.76,18.57-1.46.35-2.99.52-4.49.52-11.25.04-22.5.02-33.74.02-.38,0-.75,0-1.2,0-.06-.33-.16-.6-.16-.88,0-2.69.02-5.37-.02-8.06-.01-.87.27-1.19,1.17-1.15,1.64.07,3.29-.05,4.93.06,1.15.07,1.53-.22,1.51-1.43-.09-3.9-.05-7.81-.05-11.71,0-9.7.02-19.39.03-29.09,0-.37,0-.73,0-1.27,2.11,0,4.11,0,6.12,0,6.78,0,13.57-.09,20.35-.01,7.75.09,14.36,5.08,15.91,12.11,1.11,5.02.43,9.7-3.5,13.47-.15.14-.26.32-.52.63Zm-28.18,17.09c.25.06.37.11.49.11,5.89,0,11.79.15,17.67-.05,4.11-.14,7.02-4.88,4.74-8.69-1.4-2.34-3.58-3.26-6.14-3.29-5.26-.07-10.52-.02-15.78-.02-.32,0-.64.06-.98.09v11.84Zm-.03-33.1c0,3.49.02,6.8,0,10.1-.01,1.68-.05,1.69,1.68,1.69,4.59,0,9.17,0,13.76-.02.79,0,1.6-.08,2.37-.26,2.76-.65,4.68-3.05,4.63-5.69-.05-2.69-2.09-5.21-4.89-5.58-2.24-.29-4.53-.21-6.79-.23-3.53-.03-7.05,0-10.75,0Z"/><path class="cls-1" d="m97.7,36.95c.12,2.56.35,4.99.33,7.41-.03,5.75.65,11.41,1.34,17.12,2.02,16.74-9.56,29.53-23.8,31.78-15.67,2.47-28.57-7.55-32.24-20.11-3.77-12.92,1.7-27.79,15.52-34.18,4.77-2.21,9.77-2.84,15-2.61,7.57.33,15.16.41,22.74.59.29,0,.58,0,1.1,0Zm-8.39,27.96c.16-9.69-8.15-18.16-18.16-18.21-10.41-.05-18.49,8.04-18.64,18.02-.15,9.38,7.16,18.26,17.81,18.61,10.44.35,18.82-7.91,18.99-18.43Z"/><path class="cls-1" d="m266.64,48.41h-7.75v-10.21c.97,0,1.8,0,2.64,0,8.76,0,17.52,0,26.29.02,8.83.02,16.3,3.11,21.94,10.02,4.38,5.37,6.17,11.55,5.75,18.51-.41,6.88-3,12.69-7.89,17.45-5.07,4.95-11.3,7.37-18.35,7.5-7.07.13-14.15.03-21.23.03-.41,0-.83,0-1.39,0v-43.32Zm10.09,33.22c.59.05,1.12.15,1.66.15,2.99,0,5.98-.02,8.98-.07,1.34-.02,2.72.02,4.03-.24,8.21-1.64,13.24-7.31,13.98-15.64.72-8.22-6.04-16.53-14.26-17.15-4.69-.36-9.43-.18-14.14-.24-.07,0-.14.08-.23.14v33.06Z"/><path class="cls-1" d="m220.48,93.39c-.34.04-.55.08-.75.08-7.2,0-14.41.09-21.61,0-6.5-.09-12.48-2.13-18.11-5.25-2.13-1.18-4.21-2.44-6.24-3.62-.03-.23-.08-.34-.04-.39,1.88-2.68,3.76-5.35,5.65-8.02.45-.63.88-.31,1.39,0,2.31,1.37,4.58,2.85,6.99,4.01,4.6,2.21,9.43,3.64,14.63,2.92,2.38-.33,4.7-.92,6.65-2.48,2.32-1.86,2.63-4.03.33-5.91-1.68-1.37-3.76-2.41-5.83-3.09-4.91-1.62-9.92-2.89-14.87-4.39-3.31-1-6.41-2.47-9.25-4.5-5.04-3.6-6.13-9.43-4.22-14.71,2.17-6.01,6.9-9.16,12.87-10.79,5.06-1.39,10.07-.93,15.11.1,5.78,1.18,10.98,3.65,15.87,6.86.1.06.16.19.32.39-.36.52-.73,1.07-1.09,1.62-1.25,1.89-2.51,3.78-3.73,5.69-.57.88-1.11,1.17-2.14.53-3.55-2.2-7.33-3.95-11.4-4.96-3.76-.93-7.56-1.43-11.32-.05-1.2.44-2.4,1.08-3.37,1.9-2.27,1.94-2.02,4.57.62,5.95,1.92,1,4.02,1.71,6.09,2.37,4.92,1.58,9.94,2.86,14.78,4.63,2.77,1.01,5.46,2.48,7.85,4.2,3.97,2.85,5.91,6.88,5.62,11.86-.29,4.98-.55,9.96-.83,15.06Z"/><path class="cls-1" d="m341.64,91.73c-3.18,0-6.25.02-9.32-.03-.26,0-.7-.44-.74-.72-.11-.74-.05-1.51-.05-2.26,0-16.24,0-32.49,0-48.73,0-1.78.01-1.79,1.76-1.79,2.36,0,4.72.08,7.08,0,1.09-.03,1.35.36,1.35,1.36,0,9.91.08,19.81.08,29.72,0,7.22-.07,14.44-.11,21.66,0,.21-.03.41-.05.79Z"/><path class="cls-1" d="m237.78,38.29h9.99v53.34h-9.99v-53.34Z"/><path class="cls-1" d="m277.28,117.64c.92.98,1.91,1.79,2.61,2.8,2.31,3.39.17,8.18-3.93,8.53-3.64.31-7.32.19-10.98.26-.83.02-.78-.55-.77-1.13.02-6.34.02-12.68.04-19.01,0-2.04.02-2.05,2.08-2.03,2.91.03,5.82-.06,8.71.17,2.6.2,4.64,2.02,5.1,4.2.49,2.35-.38,4.96-2.74,6.07-.07.03-.1.13-.11.13Zm-10.2,9.04c.81,0,1.4,0,1.99,0,1.55,0,3.11.03,4.66,0,2.21-.05,3.87-1.5,3.97-3.42.11-2.13-1.35-3.83-3.65-3.99-2.05-.14-4.11-.06-6.17,0-.27,0-.76.44-.76.68-.06,2.2-.03,4.41-.03,6.74Zm.11-16.83v6.75c2.3,0,4.49.05,6.68-.01,2.13-.06,3.32-1.36,3.33-3.47,0-1.96-1.11-3.16-3.23-3.24-2.23-.09-4.46-.02-6.77-.02Z"/><path class="cls-1" d="m326.25,112.23c0,5.4-.04,10.42.03,15.44.02,1.24-.43,1.57-1.6,1.62-1.15.05-1.45-.38-1.44-1.43.05-6.34.04-12.67.1-19.01,0-.59.28-1.67.47-1.68,1.06-.06,2.25-.58,3.12.63,2.2,3.07,4.47,6.09,6.7,9.14,1.43,1.97,2.84,3.96,4.26,5.93.19.26.42.5.81.96.06-.53.12-.82.12-1.11.01-4.78.03-9.57,0-14.35,0-.91.13-1.45,1.23-1.31.84.11,1.72-.22,1.7,1.27-.07,6.42,0,12.84-.03,19.26,0,.55-.23,1.51-.52,1.58-.89.21-1.94.48-2.68-.46-.39-.49-.76-1.01-1.13-1.51-3.46-4.7-6.92-9.4-10.39-14.09-.15-.2-.32-.37-.76-.87Z"/><path class="cls-1" d="m284.98,118.03c0-3.27.03-6.54-.02-9.81-.01-.9.27-1.17,1.15-1.15,2.65.05,5.31-.04,7.96.06,3.65.13,5.85,1.84,6.68,5.03,1.04,3.99-1.87,8.04-6.03,8.27-1.89.11-3.79.08-5.68.04-.89-.02-1.15.27-1.11,1.17.09,2.14-.01,4.28.07,6.41.06,1.56-1.12,1.03-1.85,1.18-.84.17-1.2-.23-1.19-1.13.04-3.36.01-6.71.01-10.07,0,0,0,0,0,0Zm2.96-8.1c0,2.42-.03,4.68.03,6.93.01.35.46.96.73.97,1.8.08,3.62.14,5.42,0,2.19-.18,3.73-1.78,3.79-3.69.07-2.18-1.09-3.94-3.19-4.16-2.23-.24-4.5-.05-6.78-.05Z"/><path class="cls-1" d="m224.9,128.05c-.55.49-.92,1.07-1.39,1.18-1.46.32-1.68.07-1.68-1.44.01-5.71.04-11.41.02-17.12,0-1.11.41-1.46,1.5-1.37.8.06,1,.39.99,1.1-.02,1.87,0,3.74,0,5.82.53-.31.84-.49,1.15-.68,4.01-2.57,8.8-.68,9.79,4,.61,2.87.45,5.71-1.65,8.06-2.11,2.36-5.54,2.67-8.11.83-.26-.18-.55-.32-.62-.37Zm-.48-6.35s-.04,0-.05,0c.06.96-.01,1.95.21,2.87.16.68.57,1.43,1.1,1.87,1.67,1.39,4.62,1.05,6.06-.59,1.79-2.05,1.66-6.07-.26-8-1.25-1.26-3.36-1.49-5.3-.66-1.67.71-1.94,2.04-1.76,3.62.03.29,0,.59,0,.88Z"/><path class="cls-1" d="m236.95,113.28c2.65-.46,2.78-.41,3.72,1.86,1.41,3.41,2.79,6.83,4.3,10.53.52-1.19.95-2.12,1.34-3.08,1.17-2.83,2.32-5.67,3.48-8.5.36-.88,2.16-1.43,2.85-.79.2.19.14.84,0,1.19-1.7,4.2-3.43,8.38-5.17,12.56-.79,1.9-1.54,3.81-2.44,5.66-1.2,2.48-2.86,3.26-5.55,2.89-.86-.12-1.02-.57-.97-1.29.05-.74.3-1.11,1.16-1.08,2.56.06,4.34-2.81,3.33-5.2-1.99-4.71-3.93-9.45-5.89-14.17-.06-.15-.08-.31-.15-.57Z"/><path class="cls-1" d="m309.85,109.71c-1.99,0-3.88-.04-5.77.02-.98.03-1.19-.34-1.17-1.26.02-.9.11-1.4,1.2-1.39,4.89.03,9.78.04,14.67-.03,1.58-.02.9,1.05,1.03,1.72.15.84-.29,1.06-1.1,1.04-1.92-.06-3.84-.02-5.87-.02v19.17c-.3.09-.49.18-.7.21-2.13.31-2.22.21-2.22-1.89,0-5.04-.04-10.08-.07-15.12,0-.71,0-1.41,0-2.44Z"/><path d="m71.14,46.7c-10.41-.05-18.49,8.04-18.64,18.02-.15,9.38,7.16,18.26,17.81,18.61,10.44.35,18.82-7.91,18.99-18.43.16-9.69-8.15-18.16-18.16-18.21Z"/><path d="m384.36,49.61c0-4.4.03-8.84-.5-13.19-.88-7.1-4.07-13.27-9.37-18.08-5.98-5.42-13.14-8.41-21.32-8.6-3.58-.09-7.16-.04-10.75-.04-48.72,0-97.45,0-146.17,0-25.5,0-51,0-76.5,0-25.37,0-50.75-.02-76.12,0-2.65,0-5.31.06-7.94.37-13.07,1.52-23.91,11.28-26.88,24.11-.97,4.17-.85,8.41-.84,12.65,0,25.11-.05,50.23,0,75.34,0,2.88.25,5.81.86,8.62,1.17,5.41,3.96,10.1,7.76,14.07,6.4,6.68,14.3,10.33,23.62,10.34,103.94.04,207.88.03,311.82.02,1.26,0,2.52-.14,3.77-.28,5.45-.64,10.56-2.37,14.97-5.62,8.91-6.55,13.61-15.37,13.61-26.49.02-24.4.03-48.8-.01-73.2Zm-146.58-11.32h9.99v53.34h-9.99v-53.34Zm-162.21,54.97c-15.67,2.47-28.57-7.55-32.24-20.11-3.77-12.92,1.7-27.79,15.52-34.18,4.77-2.21,9.77-2.84,15-2.61,7.57.33,15.16.41,22.74.59.29,0,.58,0,1.1,0,.12,2.56.35,4.99.33,7.41-.03,5.75.65,11.41,1.34,17.12,2.02,16.74-9.56,29.53-23.8,31.78Zm71.99-2.08c-1.46.35-2.99.52-4.49.52-11.25.04-22.5.02-33.74.02h-1.2c-.06-.33-.16-.6-.16-.88,0-2.69.02-5.37-.02-8.06-.01-.87.27-1.19,1.17-1.15,1.64.07,3.29-.05,4.93.06,1.15.07,1.53-.22,1.51-1.43-.09-3.9-.05-7.81-.05-11.71,0-9.7.02-19.39.03-29.09,0-.37,0-.73,0-1.27,2.11,0,4.11,0,6.12,0,6.78,0,13.57-.09,20.35-.01,7.75.09,14.36,5.08,15.91,12.11,1.11,5.02.43,9.7-3.5,13.47-.15.14-.26.32-.52.63,2.85,2.14,4.6,4.89,5.43,8.21,2.28,9.1-4.28,16.77-11.76,18.57Zm73.75-12.85c-.29,4.98-.55,9.96-.83,15.06-.34.04-.55.08-.75.08-7.2,0-14.41.09-21.61,0-6.5-.09-12.48-2.13-18.11-5.25-2.13-1.18-4.21-2.44-6.24-3.62-.03-.23-.08-.34-.04-.39,1.88-2.68,3.76-5.35,5.65-8.02.45-.63.88-.31,1.39,0,2.31,1.37,4.58,2.85,6.99,4.01,4.6,2.21,9.43,3.64,14.63,2.92,2.38-.33,4.7-.92,6.65-2.48,2.32-1.86,2.63-4.03.33-5.91-1.68-1.37-3.76-2.41-5.83-3.09-4.91-1.62-9.92-2.89-14.87-4.39-3.31-1-6.41-2.47-9.25-4.5-5.04-3.6-6.13-9.43-4.22-14.71,2.17-6.01,6.9-9.16,12.87-10.79,5.06-1.39,10.07-.93,15.11.1,5.78,1.18,10.98,3.65,15.87,6.86.1.06.16.19.32.39-.36.52-.73,1.07-1.09,1.62-1.25,1.89-2.51,3.78-3.73,5.69-.57.88-1.11,1.17-2.14.53-3.55-2.2-7.33-3.95-11.4-4.96-3.76-.93-7.56-1.43-11.32-.05-1.2.44-2.4,1.08-3.37,1.9-2.27,1.94-2.02,4.57.62,5.95,1.92,1,4.02,1.71,6.09,2.37,4.92,1.58,9.94,2.86,14.78,4.63,2.77,1.01,5.46,2.48,7.85,4.2,3.97,2.85,5.91,6.88,5.62,11.86Zm12.32,49.25c-2.11,2.36-5.54,2.67-8.11.83-.26-.18-.55-.32-.62-.37-.55.49-.92,1.07-1.39,1.18-1.46.32-1.68.07-1.68-1.44.01-5.71.04-11.41.02-17.12,0-1.11.41-1.46,1.5-1.38.8.06,1,.39.99,1.1-.02,1.87,0,3.74,0,5.82.53-.31.84-.49,1.15-.68,4.01-2.57,8.8-.68,9.79,4,.61,2.87.45,5.71-1.65,8.06Zm19-13.09c-1.7,4.2-3.43,8.38-5.17,12.56-.79,1.9-1.54,3.81-2.44,5.66-1.2,2.48-2.86,3.26-5.55,2.89-.86-.12-1.02-.57-.97-1.29.05-.74.3-1.11,1.16-1.08,2.56.06,4.34-2.81,3.33-5.2-1.99-4.71-3.93-9.45-5.89-14.17-.06-.15-.08-.31-.15-.57,2.65-.46,2.78-.41,3.72,1.86,1.41,3.41,2.79,6.83,4.3,10.53.52-1.19.95-2.12,1.34-3.08,1.17-2.83,2.32-5.67,3.48-8.5.36-.88,2.16-1.43,2.85-.79.2.19.14.84,0,1.19Zm6.26-76.3c.97,0,1.8,0,2.64,0,8.76,0,17.52,0,26.29.02,8.83.02,16.3,3.11,21.94,10.02,4.38,5.37,6.17,11.55,5.75,18.51-.41,6.88-3,12.69-7.89,17.45-5.07,4.95-11.3,7.37-18.35,7.5-7.07.13-14.15.03-21.23.03h-1.39v-43.32h-7.75v-10.21Zm17.07,90.77c-3.64.31-7.32.19-10.98.26-.83.02-.78-.55-.77-1.13.02-6.34.02-12.68.04-19.01,0-2.04.02-2.05,2.08-2.03,2.91.03,5.82-.06,8.71.17,2.6.21,4.64,2.02,5.1,4.2.49,2.35-.38,4.96-2.74,6.07-.07.03-.1.13-.11.13.92.98,1.91,1.79,2.61,2.8,2.31,3.39.17,8.18-3.93,8.53Zm18.76-8.54c-1.89.11-3.79.08-5.68.04-.89-.02-1.15.27-1.11,1.17.09,2.14-.01,4.28.07,6.41.06,1.56-1.12,1.03-1.85,1.18-.84.17-1.2-.23-1.19-1.13.04-3.36.01-6.71.01-10.07h0c0-3.27.03-6.54-.02-9.81-.01-.9.27-1.17,1.15-1.15,2.65.05,5.31-.04,7.96.06,3.65.13,5.85,1.84,6.68,5.03,1.04,3.99-1.87,8.04-6.03,8.27Zm25.09-11.66c.15.84-.29,1.06-1.1,1.04-1.92-.06-3.84-.02-5.87-.02v19.17c-.3.09-.49.18-.7.21-2.13.31-2.22.21-2.22-1.89,0-5.04-.04-10.08-.07-15.12,0-.71,0-1.41,0-2.44-1.99,0-3.88-.04-5.77.02-.98.03-1.19-.34-1.17-1.26.02-.9.11-1.4,1.2-1.39,4.89.03,9.78.04,14.67-.03,1.58-.02.9,1.05,1.03,1.72Zm21.93,18.81c0,.55-.23,1.51-.52,1.58-.89.21-1.94.48-2.68-.46-.39-.49-.76-1.01-1.13-1.51-3.46-4.7-6.92-9.4-10.39-14.09-.15-.2-.32-.37-.76-.87,0,5.4-.04,10.42.03,15.44.02,1.24-.43,1.57-1.6,1.62-1.15.05-1.45-.38-1.44-1.43.05-6.34.04-12.67.1-19.01,0-.59.28-1.67.47-1.68,1.06-.06,2.25-.58,3.12.63,2.2,3.07,4.47,6.09,6.7,9.14,1.43,1.97,2.84,3.96,4.26,5.93.19.26.42.5.81.96.06-.53.12-.82.12-1.11.01-4.78.03-9.57,0-14.35,0-.91.13-1.45,1.23-1.31.84.11,1.72-.22,1.7,1.27-.07,6.42,0,12.84-.03,19.26Zm-.05-36.65c0,.21-.03.41-.05.79-3.18,0-6.25.02-9.32-.03-.26,0-.7-.44-.74-.72-.11-.74-.05-1.51-.05-2.26,0-16.24,0-32.49,0-48.73,0-1.78.01-1.79,1.76-1.79,2.36,0,4.72.08,7.08,0,1.09-.03,1.35.36,1.35,1.36,0,9.91.08,19.81.08,29.72,0,7.22-.07,14.44-.11,21.66Z"/><path d="m142.47,69.57c-5.26-.07-10.52-.02-15.78-.02-.32,0-.64.06-.98.09v11.84c.25.06.37.11.49.11,5.89,0,11.79.15,17.67-.05,4.11-.14,7.02-4.88,4.74-8.69-1.4-2.34-3.58-3.26-6.14-3.29Z"/><path d="m127.35,60.18c4.59,0,9.17,0,13.76-.02.79,0,1.6-.08,2.37-.26,2.76-.65,4.68-3.05,4.63-5.69-.05-2.69-2.09-5.21-4.89-5.58-2.24-.29-4.53-.21-6.79-.23-3.53-.03-7.05,0-10.75,0,0,3.49.02,6.8,0,10.1-.01,1.68-.05,1.69,1.68,1.69Z"/><path d="m287.36,81.7c1.34-.02,2.72.02,4.03-.24,8.21-1.64,13.24-7.31,13.98-15.64.72-8.22-6.04-16.53-14.26-17.15-4.69-.36-9.43-.18-14.14-.24-.07,0-.14.08-.23.14v33.06c.59.05,1.12.15,1.66.15,2.99,0,5.98-.02,8.98-.07Z"/><path d="m274.05,119.27c-2.05-.14-4.11-.06-6.17,0-.27,0-.76.44-.76.68-.06,2.2-.03,4.41-.03,6.74.81,0,1.4,0,1.99,0,1.55,0,3.11.03,4.66,0,2.21-.05,3.87-1.5,3.97-3.42.11-2.13-1.35-3.83-3.65-3.99Z"/><path d="m273.88,116.59c2.13-.06,3.32-1.36,3.33-3.47,0-1.96-1.11-3.16-3.23-3.24-2.23-.09-4.46-.02-6.77-.02v6.75c2.3,0,4.49.05,6.68-.01Z"/><path d="m294.73,109.98c-2.23-.24-4.5-.05-6.78-.05,0,2.42-.03,4.68.03,6.93.01.35.46.96.73.97,1.8.08,3.62.14,5.42,0,2.19-.18,3.73-1.78,3.79-3.69.07-2.18-1.09-3.94-3.19-4.16Z"/><path d="m226.18,117.2c-1.67.71-1.94,2.04-1.76,3.62.03.29,0,.59,0,.88-.02,0-.04,0-.05,0,.06.96-.01,1.95.21,2.87.16.68.57,1.43,1.1,1.87,1.67,1.39,4.62,1.05,6.06-.59,1.79-2.05,1.66-6.07-.26-8-1.25-1.26-3.36-1.49-5.3-.66Z"/></svg>