<svg width="80" height="81" viewBox="0 0 80 81" fill="none" xmlns="http://www.w3.org/2000/svg">
<g clip-path="url(#clip0_1_301)">
<path d="M80 73.4063C80 77.6002 76.6422 81 72.5 81H7.5C3.35781 81 0 77.6002 0 73.4063V31.7552C1.38158e-05 30.6037 0.258671 29.4673 0.756403 28.4319C1.25414 27.3965 1.97791 26.4893 2.87297 25.7789C6.76562 22.6894 9.9825 20.1841 28.5292 6.55549C31.1581 4.61481 36.3745 -0.0548719 40 0.000499186C43.6247 -0.0555047 48.8431 4.6156 51.4708 6.55533C70.0156 20.1825 73.2369 22.6913 77.127 25.7789C78.0221 26.4893 78.7459 27.3965 79.2436 28.4319C79.7413 29.4673 80 30.6037 80 31.7552V73.4063ZM69.7397 42.3027C69.3392 41.713 68.5366 41.5758 67.968 42.0011C64.3984 44.6704 59.302 48.4407 51.4708 54.1952C48.8419 56.1357 43.6255 60.8051 40 60.7495C36.3733 60.804 31.1627 56.139 28.5292 54.1952C20.6989 48.4413 15.602 44.6707 12.032 42.0011C11.4634 41.5758 10.6608 41.713 10.2603 42.3027L8.84281 44.3904C8.65908 44.6608 8.58634 44.993 8.63995 45.3167C8.69357 45.6405 8.86934 45.9304 9.13016 46.1254C12.7062 48.7989 17.7948 52.5627 25.5837 58.2862C28.7516 60.6246 34.4156 65.8503 40 65.8124C45.5819 65.8506 51.2439 60.6279 54.4161 58.2862C62.2052 52.5625 67.2939 48.7987 70.8697 46.1254C71.1305 45.9304 71.3063 45.6405 71.3599 45.3167C71.4135 44.993 71.3408 44.6608 71.157 44.3904L69.7397 42.3027Z" fill="#4244ED"/>
</g>
<defs>
<clipPath id="clip0_1_301">
<rect width="80" height="81" fill="white"/>
</clipPath>
</defs>
</svg>
