<svg width="273" height="77" viewBox="0 0 273 77" fill="none" xmlns="http://www.w3.org/2000/svg">
<path d="M42.7522 2.57001C43.4933 2.86533 44.0164 3.5122 44.1472 4.27158L46.1961 16.1825L58.5041 18.1653C59.2888 18.2919 59.9572 18.7981 60.2624 19.5153C60.5675 20.2325 60.4803 21.0481 60.0299 21.681L54.4353 29.4153C54.1157 29.4013 53.796 29.3872 53.4617 29.3872C50.076 29.3872 46.9081 30.2591 44.1617 31.7919V31.6372C44.1617 24.1841 37.9133 18.1372 30.2117 18.1372C22.5102 18.1372 16.2617 24.1841 16.2617 31.6372C16.2617 39.0903 22.5102 45.1372 30.2117 45.1372C31.3888 45.1372 32.5222 44.9966 33.6121 44.7294C28.2936 47.2747 24.4138 52.1966 23.4692 58.0747L19.9236 60.4653C19.2697 60.9153 18.4269 60.9997 17.6858 60.6903C16.9447 60.381 16.4216 59.7481 16.2908 58.9888L14.2564 47.1059L1.94847 45.1231C1.16378 44.9966 0.495344 44.4903 0.190188 43.7731C-0.114969 43.056 -0.0277811 42.2403 0.422688 41.6075L7.63019 31.6513L0.422688 21.695C-0.0423124 21.0622 -0.1295 20.2466 0.190188 19.5294C0.509875 18.8122 1.16378 18.306 1.94847 18.1794L14.2564 16.1966L16.3053 4.28564C16.4361 3.52626 16.9592 2.87939 17.7003 2.58408C18.4414 2.28876 19.2842 2.37314 19.9382 2.80908L30.2263 9.78408L40.5144 2.80908C41.1683 2.35908 42.0111 2.2747 42.7522 2.58408V2.57001ZM20.9263 31.6513C20.9263 29.2643 21.9061 26.9751 23.6502 25.2873C25.3943 23.5995 27.7598 22.6513 30.2263 22.6513C32.6928 22.6513 35.0583 23.5995 36.8024 25.2873C38.5465 26.9751 39.5263 29.2643 39.5263 31.6513C39.5263 34.0382 38.5465 36.3274 36.8024 38.0152C35.0583 39.7031 32.6928 40.6513 30.2263 40.6513C27.7598 40.6513 25.3943 39.7031 23.6502 38.0152C21.9061 36.3274 20.9263 34.0382 20.9263 31.6513ZM92.9867 63.1372C92.9867 69.3528 87.7846 74.3872 81.3617 74.3872H41.8513C34.1497 74.3872 27.9013 68.3403 27.9013 60.8872C27.9013 54.1935 32.9291 48.6528 39.5263 47.5841V47.4013C39.5263 39.9481 45.7747 33.9013 53.4763 33.9013C58.5477 33.9013 62.9797 36.5169 65.421 40.4263C67.31 39.1466 69.606 38.4013 72.0763 38.4013C78.4991 38.4013 83.7013 43.4356 83.7013 49.6513C83.7013 50.4809 83.6141 51.2966 83.4252 52.07C88.8599 53.0122 92.9867 57.6106 92.9867 63.1372Z" fill="#FFFC88"/>
<path d="M71.2194 31.0384L76.1346 31L82.0866 10.8016L87.693 31H92.6466L100.557 4.312H95.8722L90.3042 25.9312L84.7362 4.312H79.821L73.8306 26.0464L68.301 4.312H63.6546L71.2194 31.0384ZM113.076 13.1824C116.34 13.1824 118.913 15.256 118.99 18.52H107.278C107.739 15.1792 110.119 13.1824 113.076 13.1824ZM122.983 24.7024H118.26C117.454 26.3536 115.956 27.6592 113.268 27.6592C110.043 27.6592 107.547 25.5472 107.239 22.0528H123.406C123.521 21.3232 123.559 20.632 123.559 19.9024C123.559 13.6816 119.297 9.496 113.268 9.496C107.009 9.496 102.708 13.7584 102.708 20.4016C102.708 27.0448 107.201 31.3456 113.268 31.3456C118.452 31.3456 121.793 28.3888 122.983 24.7024ZM126.408 20.3248C126.408 26.8528 130.824 31.3456 136.315 31.3456C139.848 31.3456 142.383 29.656 143.727 27.8512V31H148.143V9.8416H143.727V12.9136C142.421 11.1856 139.963 9.496 136.392 9.496C130.824 9.496 126.408 13.7968 126.408 20.3248ZM143.727 20.4016C143.727 24.9712 140.616 27.544 137.314 27.544C134.05 27.544 130.901 24.8944 130.901 20.3248C130.901 15.7552 134.05 13.2976 137.314 13.2976C140.616 13.2976 143.727 15.8704 143.727 20.4016ZM154.584 25.1248C154.584 29.4256 156.926 31 160.689 31H164.145V27.352H161.457C159.614 27.352 159 26.6992 159 25.1248V13.4128H164.145V9.8416H159V4.5808H154.584V9.8416H152.088V13.4128H154.584V25.1248ZM168.18 31H172.558V19.1728C172.558 15.2944 174.67 13.2976 177.895 13.2976C181.082 13.2976 183.194 15.2944 183.194 19.1728V31H187.534V18.52C187.534 12.6064 183.847 9.496 179.124 9.496C176.398 9.496 174.017 10.5328 172.558 12.2992V2.584H168.18V31ZM202.026 13.1824C205.29 13.1824 207.863 15.256 207.94 18.52H196.228C196.689 15.1792 199.069 13.1824 202.026 13.1824ZM211.933 24.7024H207.21C206.404 26.3536 204.906 27.6592 202.218 27.6592C198.993 27.6592 196.497 25.5472 196.189 22.0528H212.356C212.471 21.3232 212.509 20.632 212.509 19.9024C212.509 13.6816 208.247 9.496 202.218 9.496C195.959 9.496 191.658 13.7584 191.658 20.4016C191.658 27.0448 196.151 31.3456 202.218 31.3456C207.402 31.3456 210.743 28.3888 211.933 24.7024ZM221.195 19.864C221.195 15.3712 223.192 14.0272 226.417 14.0272H227.531V9.496C224.536 9.496 222.424 10.8016 221.195 12.9136V9.8416H216.817V31H221.195V19.864Z" fill="white"/>
<path d="M120.956 66.4H127.906L118.152 39.4432H110.549L100.796 66.4H107.669L109.282 61.6384H119.343L120.956 66.4ZM117.653 56.5696H111.01L114.312 46.7008L117.653 56.5696ZM137.441 48.0064V44.9728H130.875V76.6144H137.441V63.4048C138.631 65.2096 140.897 66.7072 144.046 66.7072C149.307 66.7072 153.492 62.4064 153.492 55.648C153.492 48.8896 149.307 44.6656 144.046 44.6656C140.897 44.6656 138.631 46.1248 137.441 48.0064ZM146.811 55.648C146.811 59.0656 144.583 60.9856 142.087 60.9856C139.63 60.9856 137.403 59.104 137.403 55.6864C137.403 52.2688 139.63 50.3872 142.087 50.3872C144.583 50.3872 146.811 52.2304 146.811 55.648ZM163.503 48.0064V44.9728H156.937V76.6144H163.503V63.4048C164.694 65.2096 166.959 66.7072 170.108 66.7072C175.369 66.7072 179.555 62.4064 179.555 55.648C179.555 48.8896 175.369 44.6656 170.108 44.6656C166.959 44.6656 164.694 46.1248 163.503 48.0064ZM172.873 55.648C172.873 59.0656 170.646 60.9856 168.15 60.9856C165.692 60.9856 163.465 59.104 163.465 55.6864C163.465 52.2688 165.692 50.3872 168.15 50.3872C170.646 50.3872 172.873 52.2304 172.873 55.648Z" fill="#D9D9D9"/>
</svg>
